<?xml version="1.0" encoding="iso-8859-1"?>
<!-- Uploaded to: SVG Repo, www.svgrepo.com, Generator: SVG Repo Mixer Tools -->
<svg height="800px" width="800px" version="1.1" id="Layer_1" xmlns="http://www.w3.org/2000/svg" xmlns:xlink="http://www.w3.org/1999/xlink" 
	 viewBox="0 0 512 512" xml:space="preserve">
<polygon style="fill:#D5DCED;" points="256,42.221 42.221,230.346 42.221,469.779 469.779,469.779 469.779,230.346 "/>
<polygon style="fill:#FFF082;" points="256,84.977 76.426,243.002 76.426,469.779 435.574,469.779 435.574,243.002 "/>
<polygon style="fill:#FFF8C1;" points="256,127.733 110.63,255.658 110.63,469.779 401.37,469.779 401.37,255.658 "/>
<polygon style="fill:#FFFCE6;" points="256,170.488 144.835,268.314 144.835,469.779 367.165,469.779 367.165,268.314 "/>
<g>
	<path style="fill:#9BF57D;" d="M126.564,263.383c0,0,58.33,7.912,89.163,38.745c17.029,17.029,19.547,42.12,5.625,56.042
		s-39.014,11.404-56.042-5.625C134.476,321.712,126.564,263.383,126.564,263.383z"/>
	<path style="fill:#9BF57D;" d="M367.165,238.898c0,0-48.061,6.519-73.466,31.924c-14.031,14.031-16.106,34.705-4.634,46.176
		c11.471,11.471,32.145,9.397,46.176-4.634C360.646,286.958,367.165,238.898,367.165,238.898z"/>
</g>
<g>
	<path style="fill:#8CE16E;" d="M165.309,352.546c17.03,17.029,42.12,19.547,56.043,5.625l-94.787-94.787
		C126.564,263.383,134.476,321.712,165.309,352.546z"/>
	<path style="fill:#8CE16E;" d="M289.065,316.998l78.1-78.101c0,0-48.061,6.519-73.465,31.924
		C279.669,284.853,277.593,305.526,289.065,316.998z"/>
</g>
<path d="M503.983,461.762h-26.188V230.346c0-2.303-0.991-4.497-2.72-6.018L261.296,36.203c-3.027-2.665-7.565-2.665-10.592,0
	L36.926,224.329c-1.731,1.522-2.721,3.714-2.721,6.018v231.415H8.017c-4.427,0-8.017,3.589-8.017,8.017
	c0,4.427,3.589,8.017,8.017,8.017h495.967c4.427,0,8.017-3.589,8.017-8.017C512,465.351,508.411,461.762,503.983,461.762z
	 M50.238,233.971L256,52.9l205.762,181.071v227.791h-18.171v-218.76c0-2.303-0.991-4.497-2.72-6.018L261.296,78.959
	c-3.028-2.665-7.563-2.665-10.592,0L71.131,236.984c-1.729,1.522-2.72,3.714-2.72,6.018v218.76H50.238V233.971z M264.017,392.821
	c0-0.001,0-0.003,0-0.005v-21.501c0-11.563,4.503-22.435,12.679-30.611l13.093-13.093c5.403,3.189,11.646,4.764,18.122,4.764
	c11.407,0,23.528-4.872,32.999-14.342c27.007-27.007,33.918-75.986,34.199-78.057c0.336-2.48-0.506-4.976-2.276-6.746
	c-1.77-1.77-4.268-2.61-6.746-2.276c-2.072,0.281-51.051,7.193-78.057,34.199c-14.847,14.847-18.381,36.196-9.576,51.118
	l-13.095,13.095c-11.205,11.204-17.376,26.102-17.376,41.948v2.15l-15.873-15.873c4.894-7.607,7.018-16.912,6.014-26.929
	c-1.242-12.377-7.161-24.427-16.666-33.932c-32.28-32.28-90.28-39.83-92.733-40.135c-2.458-0.308-4.912,0.538-6.659,2.286
	s-2.592,4.206-2.286,6.659c0.306,2.453,7.855,60.453,40.135,92.733c9.506,9.506,21.556,15.425,33.932,16.666
	c1.63,0.164,3.24,0.245,4.828,0.245c8.173,0,15.735-2.154,22.106-6.253l27.203,27.208v65.623H84.443V246.626L256,95.655
	l171.557,150.972v215.135H264.017V392.821z M299.367,276.491c16.029-16.028,42.665-24.045,57.686-27.481
	c-3.436,15.021-11.453,41.658-27.481,57.686c-8.264,8.263-19.26,11.445-27.723,8.855l28.228-28.227
	c3.131-3.131,3.131-8.207,0-11.337c-3.131-3.131-8.207-3.131-11.337,0l-28.227,28.227
	C287.923,295.751,291.105,284.753,299.367,276.491z M184.708,310.19c-3.131-3.131-8.207-3.131-11.337,0
	c-3.131,3.131-3.131,8.207,0,11.337l35.58,35.58c-3.968,1.716-8.567,2.379-13.505,1.882c-8.706-0.873-17.299-5.153-24.195-12.051
	c-20.616-20.617-30.018-55.053-33.64-72.519c17.451,3.606,51.843,12.983,72.509,33.649c6.898,6.898,11.177,15.49,12.051,24.195
	c0.496,4.938-0.168,9.538-1.882,13.505L184.708,310.19z"/>
</svg>