<?xml version="1.0" encoding="utf-8"?>
<!-- Uploaded to: SVG Repo, www.svgrepo.com, Generator: SVG Repo Mixer Tools -->
<svg width="800px" height="800px" viewBox="0 0 1024 1024" class="icon"  version="1.1" xmlns="http://www.w3.org/2000/svg"><path d="M757.2 687.9c0 26.7-21.6 48.3-48.3 48.3H322.8c-26.7 0-48.3-21.6-48.3-48.3V482.8c0-26.7 21.6-48.3 48.3-48.3h386.1c26.7 0 48.3 21.6 48.3 48.3v205.1z" fill="#1ABC9C" /><path d="M515.9 434.5h48.3v301.7h-48.3z" fill="#F4867B" /><path d="M612.4 434.5h48.3v301.7h-48.3z" fill="#FAE274" /><path d="M708.9 422.5h-38.5c-6-80.9-71.1-144.8-150.3-144.8s-144.4 63.9-150.3 144.8h-47c-33.3 0-60.3 27.1-60.3 60.3v205.1c0 33.3 27.1 60.3 60.3 60.3h386.3c33.3 0 60.3-27.1 60.3-60.3V482.8c-0.1-33.3-27.2-60.3-60.5-60.3zM503.8 724.1h-181c-20 0-36.2-16.2-36.2-36.2V482.8c0-20 16.2-36.2 36.2-36.2h181v277.5z m48.3 0H528V446.6h24.1v277.5z m48.2 0h-24.1V446.6h24.1v277.5z m-36.2-301.6H454.6l11-5.5c3-1.5 4.2-5.1 2.7-8.1s-5.1-4.2-8.1-2.7l-32.6 16.3H394c5.8-67.6 60.2-120.7 126.2-120.7s120.3 53.1 126.2 120.7h-82.3z m84.5 301.6h-24.1V446.6h24.1v277.5z m96.5-36.2c0 20-16.2 36.2-36.2 36.2h-36.2V446.6h36.2c20 0 36.2 16.2 36.2 36.2v205.1z" fill="#211F1E" /></svg>