<?xml version="1.0" encoding="utf-8"?>
<!-- Uploaded to: SVG Repo, www.svgrepo.com, Generator: SVG Repo Mixer Tools -->
<svg width="800px" height="800px" viewBox="0 0 1024 1024" class="icon"  version="1.1" xmlns="http://www.w3.org/2000/svg"><path d="M341.8 329.3h339.9v431.3H341.8z" fill="#EFE2C2" /><path d="M387.6 373.5h247.5v343H387.6z" fill="#CDE9E3" /><path d="M553.1 329.3c2.9-5.6 4.5-11.9 4.5-18.6 0-23.9-20.5-43.2-45.9-43.2-25.3 0-45.9 19.4-45.9 43.2 0 6.7 1.6 13 4.5 18.6h-63.2v55.5h209.2v-55.5h-63.2z" fill="#F7B71B" /><path d="M426.8 495.4h169.9c3.6 0 6.5-2.8 6.5-6.2 0-3.4-2.9-6.2-6.5-6.2H426.8c-3.6 0-6.5 2.8-6.5 6.2 0 3.4 2.9 6.2 6.5 6.2zM426.8 458.4h169.9c3.6 0 6.5-2.8 6.5-6.2 0-3.4-2.9-6.2-6.5-6.2H426.8c-3.6 0-6.5 2.8-6.5 6.2 0 3.5 2.9 6.2 6.5 6.2zM426.8 421.5h169.9c3.6 0 6.5-2.8 6.5-6.2 0-3.4-2.9-6.2-6.5-6.2H426.8c-3.6 0-6.5 2.8-6.5 6.2 0 3.4 2.9 6.2 6.5 6.2zM426.8 569.4h169.9c3.6 0 6.5-2.8 6.5-6.2 0-3.4-2.9-6.2-6.5-6.2H426.8c-3.6 0-6.5 2.8-6.5 6.2 0 3.4 2.9 6.2 6.5 6.2zM426.8 532.4h169.9c3.6 0 6.5-2.8 6.5-6.2 0-3.4-2.9-6.2-6.5-6.2H426.8c-3.6 0-6.5 2.8-6.5 6.2 0 3.4 2.9 6.2 6.5 6.2z" fill="#211F1E" /><path d="M681.7 317h-118c0.3-2.1 0.4-4.2 0.4-6.3 0-27.2-23.5-49.4-52.4-49.4s-52.4 22.2-52.4 49.4c0 2.1 0.1 4.2 0.4 6.3h-118c-7.2 0-13.1 5.5-13.1 12.3v431.3c0 6.8 5.9 12.3 13.1 12.3h339.9c7.2 0 13.1-5.5 13.1-12.3V329.3c0.1-6.8-5.8-12.3-13-12.3z m-274.5 73.9h209.2c3.6 0 6.5-2.8 6.5-6.2v-6.2h6.5v332.7H394.1V378.6h6.5v6.2c0.1 3.4 3 6.1 6.6 6.1z m104.6-117.3c21.7 0 39.3 16.6 39.3 37.1 0 5.5-1.3 10.9-3.9 15.9-1 1.9-0.8 4.2 0.4 5.9 1.2 1.8 3.3 2.9 5.5 2.9h56.7v43.1H413.7v-43.1h56.7c2.2 0 4.3-1.1 5.5-2.9 1.2-1.8 1.3-4 0.4-5.9-2.6-5.1-3.9-10.4-3.9-15.9 0.1-20.4 17.7-37.1 39.4-37.1z m156.9 474.7H354.9V341.6h45.8v24.6h-13.1c-3.6 0-6.5 2.8-6.5 6.2v345.1c0 3.4 2.9 6.2 6.5 6.2H636c3.6 0 6.5-2.8 6.5-6.2v-345c0-3.4-2.9-6.2-6.5-6.2h-13.1v-24.6h45.8v406.6z" fill="#211F1E" /><path d="M498.7 307.7a13.1 12.3 0 1 0 26.2 0 13.1 12.3 0 1 0-26.2 0Z" fill="#211F1E" /></svg>