<?xml version="1.0" encoding="iso-8859-1"?>
<!-- Uploaded to: SVG Repo, www.svgrepo.com, Generator: SVG Repo Mixer Tools -->
<svg version="1.1" id="Layer_1" xmlns="http://www.w3.org/2000/svg" xmlns:xlink="http://www.w3.org/1999/xlink" 
	 viewBox="0 0 512.001 512.001" xml:space="preserve">
<polygon style="fill:#60DD4D;" points="324.336,186.207 299.233,161.106 273.75,186.588 273.75,121.063 238.249,121.063 
	238.249,186.588 212.767,161.106 187.664,186.207 238.249,236.794 238.249,265.696 273.75,265.696 273.75,236.794 "/>
<polygon style="fill:#00C47A;" points="299.233,161.106 273.75,186.588 273.75,121.063 255.999,121.063 255.999,265.696 
	273.75,265.696 273.75,236.794 324.336,186.207 "/>
<path style="fill:#FF318F;" d="M192.231,22.778v52.265c0,35.162,28.606,63.77,63.77,63.77s63.77-28.606,63.77-63.77V22.778H192.231z
	"/>
<path style="fill:#BF256B;" d="M255.999,22.778v116.035c35.162,0,63.77-28.606,63.77-63.77V22.778H255.999z"/>
<polygon style="fill:#60DD4D;" points="131.494,210.509 106.011,235.991 106.011,173.657 70.51,173.657 70.51,235.991 
	45.028,210.509 19.925,235.611 88.261,303.948 156.596,235.611 "/>
<path style="fill:#FF318F;" d="M24.491,63.867v52.265c0,35.162,28.606,63.77,63.77,63.77s63.77-28.606,63.77-63.77V63.867H24.491z"
	/>
<path style="fill:#BF256B;" d="M87.963,63.867v116.027c0.099,0,0.198,0.007,0.297,0.007c35.162,0,63.77-28.606,63.77-63.77V63.867
	H87.963z"/>
<polygon style="fill:#00C47A;" points="466.972,210.509 441.49,235.991 441.49,173.657 405.989,173.657 405.989,235.991 
	380.506,210.509 355.404,235.611 423.739,303.948 492.075,235.611 "/>
<path style="fill:#FF318F;" d="M359.969,63.867v52.265c0,35.162,28.607,63.77,63.77,63.77s63.771-28.606,63.771-63.77V63.867
	H359.969z"/>
<path style="fill:#BF256B;" d="M423.441,63.867v116.027c0.099,0,0.198,0.007,0.297,0.007c35.162,0,63.771-28.606,63.771-63.77
	V63.867H423.441z"/>
<g>
	<rect x="54.172" y="357.74" style="fill:#BF7300;" width="35.501" height="131.483"/>
	<rect x="422.329" y="357.74" style="fill:#BF7300;" width="35.501" height="131.483"/>
</g>
<path style="fill:#FFDB2D;" d="M0,261.094l11.983,140.544c2.312,29.578,27.345,52.738,57.022,52.738h373.991
	c29.676,0,54.709-23.16,57.022-52.738l11.983-140.544H0z"/>
<path style="fill:#FFAE33;" d="M255.999,261.094v193.281h186.995c29.676,0,54.709-23.159,57.022-52.738L512,261.094L255.999,261.094
	L255.999,261.094z"/>
<g>
	<circle style="fill:#BF7300;" cx="380.248" cy="357.74" r="17.75"/>
	<circle style="fill:#BF7300;" cx="131.743" cy="357.74" r="17.75"/>
	<circle style="fill:#BF7300;" cx="255.996" cy="357.74" r="17.75"/>
</g>
</svg>